<?xml version="1.0" encoding="utf-8"?>
<!-- Generator: Adobe Illustrator 24.3.0, SVG Export Plug-In . SVG Version: 6.00 Build 0)  -->
<svg version="1.1" id="Layer_1" xmlns="http://www.w3.org/2000/svg" xmlns:xlink="http://www.w3.org/1999/xlink" x="0px" y="0px"
	 viewBox="0 0 533.11 230.55" style="enable-background:new 0 0 533.11 230.55;" xml:space="preserve">
<style type="text/css">
	.st0{fill:#FFFFFF;}
</style>
<g>
	<path class="st0" d="M76.08,76.96c5.94-11.67,12.6-22.3,22.94-30.06c4.95-3.72,7.28-2.91,10.84,2.25
		c4.42,6.42,9.17,12.61,13.88,18.82c0.52,0.68,1.63,0.97,2.51,1.32c8.19,3.27,13.34,10.08,18.95,16.34
		c0.62,0.69,0.71,1.84,1.22,2.67c1.23,2.02,2.11,4.66,3.93,5.84c10.76,6.98,21.69,13.74,34.47,16.57c4.92,1.09,8.74,3.44,12.65,7.05
		c4.28,3.95,10.51,6.35,16.29,7.96c13.16,3.68,26.56,6.52,39.88,9.59c3.93,0.91,7.24,2.37,8.71,6.51c2.03,5.7,6.28,10.15,7.38,16.6
		c2.65,15.65-3.72,22.05-16.57,25.93c-7.89,2.38-16.08,3.97-24.25,5.17c-6.96,1.03-14.09,0.95-21.13,1.47
		c-3.95,0.3-7.89,1.08-11.84,1.17c-2.96,0.07-5.93-0.78-8.91-0.88c-6.32-0.22-12.68,0.09-18.98-0.38
		c-10.48-0.78-20.91-2.1-31.38-3.02c-10.24-0.9-20.52-1.41-30.75-2.39c-12.34-1.18-24.66-2.57-36.97-4.04
		c-7.85-0.94-15.72-1.92-23.48-3.42c-4-0.77-7.92-2.39-11.62-4.17c-6.22-3.01-10.62-7.13-9.08-15.22
		c1.23-6.45,2.38-13.12,2.03-19.61c-0.96-17.81,8.08-33.13,11.24-49.83c1.44-7.57,0.58-15.58,0.67-23.4
		c0.09-6.76,4.5-10.96,10.81-9.24c2.49,0.68,4.42,3.55,6.53,5.5c0.91,0.84,1.72,2.79,2.41,2.72c6.48-0.73,9.32,4.36,13.13,7.88
		C73.01,74.04,74.44,75.42,76.08,76.96z M112.17,81.06c-0.57,0.73-1.69,2.06-1.63,2.11c3.32,3.07,6.74,6.04,10.15,9.02
		c1.13,0.83,2.25,1.65,3.38,2.48c1.13-0.45,2.26-0.91,3.46-1.39c-1.25-2.52-2.07-5.28-3.77-7.29c-1.84-2.17-3.96-3.77-0.37-7.06
		c-5.89,2.5-7.06,2.02-8.27-3.1c-1.16,2.05-2.11,3.71-3.05,5.38C112.07,81.21,112.17,81.06,112.17,81.06z M30.63,139.28
		c4.68-0.61,9.25-2.43,13.2-1.52c24.16,5.51,48.16,11.68,72.26,17.45c1.99,0.48,4.52,0.11,6.43-0.72
		c7.75-3.38,15.35-7.11,23.02-10.67c7-3.25,13.47-3.39,20.65,0.75c12.38,7.15,25.16,10.61,39.81,4.4
		c6.78-2.87,15.41-1.25,23.18-1.93c8.58-0.76,16.76-2.98,25.3-7.64c-12.23-2.61-23.44-5-35-7.47c-1.93,5.46-7.2,7.65-12.81,8.74
		c-9.99,1.94-19.44,0.08-28.12-5.37c-7.87-4.94-15.8-7.17-24.76-2.13c-2.99,1.69-6.98,2.11-10.54,2.2
		c-13.23,0.34-25.78-3.68-38.42-6.81c-3.73-0.92-6.13-0.36-7.79,2.89c-1.3,2.53-2.81,2.93-5.63,2.22
		c-6.06-1.54-12.38-2.11-18.43-3.7c-8.38-2.21-16.61-4.99-24.9-7.53c-0.27-0.82-0.54-1.64-0.82-2.46c2.46-1.56,4.92-3.12,7.62-4.84
		c-8.21-4.62-11.4-4.01-15.89,2.24c-1.36,1.89-2.69,3.81-4.18,5.59C30.58,127.98,27.67,133.28,30.63,139.28z M219.51,181.03
		c2.08,2.7,2.83,4.61,4.17,5.23c4.12,1.91,13.85-1.85,15.43-6.12c2.09-5.66,6.27-8.24,11.69-9.62c2.24-0.57,4.44-1.34,6.67-1.98
		c9.52-2.72,9.84-3.18,8.45-12.38c-0.04-0.29-0.26-0.55-0.19-0.4c-8.54,2.34-16.88,5.11-25.44,6.82
		c-7.68,1.53-14.14,4.12-18.46,11.12c-3.08,4.98-8.26,4.92-13.4,4.31c-8.54-1.02-17.15-1.63-25.59-3.14
		c-8.53-1.53-17.81-1.05-23.67-10.07c-5.66-8.71-16.72-10.88-25.95-6.18c-6.07,3.09-12.18,6.15-17.99,9.69
		c-5.85,3.55-11.35,7.67-17.01,11.53c0.16,0.58,0.32,1.16,0.49,1.74c5.46,0.58,10.92,1.25,16.39,1.73
		c12.21,1.07,24.42,2.27,36.65,2.89c3.17,0.16,7.43-3.33,9.43-2.16c3.15,1.85,5.62,3.72,9.61,3.63c12.47-0.27,24.95-0.13,37.43-0.08
		C212.86,187.59,217.87,188.56,219.51,181.03z M123.27,155.53c0.31,1.01,0.62,2.03,0.93,3.04c2.1-0.63,4.4-0.9,6.27-1.94
		c8.6-4.8,22.99-5.69,30.62,5.91c2.87,4.37,6.16,4.27,10.22,2.97c6.62-2.12,13.17-4.5,19.87-6.33c8.33-2.27,16.66-3.12,24.27,2.55
		c2.37,1.76,4.93,3.28,6.26,4.16c6.54-2.15,12.24-4.16,18.02-5.88c6.82-2.03,13.75-3.66,20.53-5.8c1.28-0.4,3.17-2.87,2.87-3.6
		c-1.53-3.74-3.69-7.22-5.46-10.48c-3.65,1.94-6.42,3.87-9.49,4.95c-10.71,3.75-21.78,5.24-33.16,5.44
		c-5.32,0.09-10.6,1.97-15.92,2.93c-3.33,0.6-6.74,1.58-10.04,1.34c-10.49-0.76-19.6-5.77-28.88-10.19
		c-1.65-0.79-3.99-1.47-5.55-0.91C144.11,147.44,133.71,151.54,123.27,155.53z M108.77,81.25c-0.25-0.52-0.49-1.04-0.74-1.57
		c-3.09,0.78-6.25,1.38-9.27,2.37c-6.85,2.25-13.5,5.34-20.5,6.91C69.15,91,60.38,89.99,56.59,79.5c-0.79-2.18-1.73-4.32-2.82-6.35
		c-1.8-3.34-3.54-3.14-5.69-0.05c-6.98,9.99-5.66,20.52-2.4,31.25c2.05,6.76,9.63,9.43,15.56,5.84
		c14.16-8.59,28.46-16.95,42.68-25.45C105.62,83.71,107.16,82.42,108.77,81.25z M122.66,160.75c-1.41-0.64-2.37-1.24-3.42-1.53
		c-18.99-5.08-37.9-10.51-57.02-15.03c-11.15-2.63-22.72-7.08-33.91,0.93c-0.99,3.21,0.49,5.07,3.94,5.68
		c9.42,1.68,18.89,3.15,28.25,5.12c16.27,3.42,32.48,7.15,48.72,10.71c1.04,0.23,2.36,0.42,3.21-0.02
		C115.79,164.87,119.02,162.87,122.66,160.75z M104.27,87.56c-17.74,9.6-35.68,19.39-52,32.65c1.28,0.77,1.66,1.14,2.11,1.25
		c12.29,3.21,24.57,6.48,36.92,9.47c1.2,0.29,3.4-0.77,4.18-1.88c6.99-10.01,13.76-20.17,20.02-29.44
		C111.67,95.49,108.22,91.79,104.27,87.56z M28.08,153.32c0.73,2.79-1.64,6.17,3.09,7.84c9.99,3.52,19.75,7.66,29.71,11.27
		c3.37,1.23,7.01,1.87,10.58,2.37c4.74,0.66,9.74,0.2,14.27,1.5c8.99,2.57,15.58-0.94,22.22-7.01c-2.64-0.69-4.8-1.26-7-1.84
		c-0.42,4.81-1.62,5.91-6.6,5.37c-9.37-1-18.72-2.15-28.06-3.33c-3.48-0.44-5.16-3.34-3.88-6.58c0.46-1.16,1.36-2.15,1.96-3.07
		C52.34,157.69,40.52,155.56,28.08,153.32z M169.17,169.08c2.18,0.66,3.38,1.2,4.63,1.39c10.45,1.51,20.88,3.34,31.38,4.22
		c4.49,0.37,9.76,2.68,13.71-1.59c1.01-1.1,1.71-4.31,1.13-4.77c-7-5.58-14.47-10.37-24.08-7.57
		C187.38,163.25,178.9,166.04,169.17,169.08z M122.46,97.69c9.38,6.55,18.65,12.63,27.49,19.28c9.72,7.3,9.54,7.95-0.08,15.06
		c1.7-0.4,3.25-1.2,4.88-1.76c2.46-0.85,5.01-2.28,7.45-2.14c4.81,0.26,6.69-1.62,6.48-6.18c-4.34-0.88-6.48-3.09-4.94-6.73
		c-2.52-0.39-5.47-0.04-7.13-1.34c-1.53-1.2-1.69-4.16-2.45-6.37c-5.76,2.26-9.57,0.62-10.96-4.16c-3.17-1.32-5.91-1.99-7.91-3.59
		c-0.6-0.48,0.85-3.54,1.64-6.46C132.2,94.74,127.41,96.19,122.46,97.69z M89.23,66.74c5.18-4.58,10.06-8.75,14.73-13.15
		c1.15-1.08,1.6-2.9,2.38-4.38c-1.89,0.14-4.29-0.43-5.58,0.52c-9.58,7.04-15.77,16.81-20.84,27.32c-0.78,1.61-0.45,3.76-0.79,7.18
		c6.5-2.92,11.87-5.33,17.6-7.9C93.93,72.74,91.91,70.16,89.23,66.74z M115.05,71.74c0.34-0.36,0.67-0.72,1.01-1.08
		c-3.1-2.16-6.21-4.3-9.29-6.48c-1.45-1.02-2.92-2.04-4.17-3.27c-0.18-0.18,1.05-2.34,1.26-2.28c1.57,0.44,3.07,1.16,4.55,1.88
		c1.93,0.94,3.69,3.82,6.18,0.4c-2.02-2.57-3.9-4.98-6.17-7.88c-4.23,3.61-8.25,6.77-11.91,10.31c-1.43,1.38-3.34,4.66-2.84,5.25
		c2.14,2.57,3.59,6.72,8.35,5.69C106.34,73.35,110.7,72.58,115.05,71.74z M266.55,167.82c-6.06,1.97-12.09,4-18.15,5.88
		c-5.05,1.57-6.89,5.54-8.38,10.21C261.21,180.33,266.74,174.64,266.55,167.82z M66.77,177.39c-12.85-4.84-25.7-9.68-38.93-14.67
		C29.36,172.47,52.06,177.45,66.77,177.39z M31.25,123.21c4.61-5.48,8.47-10.07,12.82-15.25c-0.89-3.83-2.03-8.78-3.45-14.9
		C37.35,103.57,34.47,112.83,31.25,123.21z M190.75,129.59c-6.53-3.32-12.86-6.53-19.39-9.85c-0.29,3.09-0.53,5.59-0.77,8.09
		c0.25-0.41,0.5-0.81,0.75-1.22c4.57,2.23,9.15,4.46,14.11,6.88C186.82,132.48,188.67,131.12,190.75,129.59z M77.11,82.7
		c-6.55-5.07-9.7-12.22-17.95-15.16c1.72,3.42,3.05,5.7,4.05,8.11C66.21,82.87,67.53,83.69,77.11,82.7z M42.01,78.63
		c5.15-4.68,2.07-14.26,11.67-14.28c-2.08-3.19-3.55-5.9-7.69-4.75c-4.15,1.16-4.05,4.19-4,7.44
		C42.06,70.68,42.01,74.32,42.01,78.63z M63.58,166.5c11.38,1.16,21.55,2.19,31.71,3.23C84.31,164.7,67.29,162.63,63.58,166.5z
		 M188.91,126.62c5.3-3.42,6.02-7.03,2-9.99C186.5,122.48,186.32,123.36,188.91,126.62z M140.96,92.92
		c-8.31-7.64-8.82-7.82-14.47-3.78C131.76,90.51,136.4,91.73,140.96,92.92z M55.82,69.02c-0.32,0.24-0.64,0.49-0.96,0.73
		c4.37,5.42,3.59,14.93,12.07,16.41C63.37,80.66,59.6,74.84,55.82,69.02z M126.97,73.33c-0.33,0.29-0.66,0.57-0.98,0.86
		c3.32,3.66,6.64,7.31,9.96,10.97C136.55,77.98,131.36,76.01,126.97,73.33z M167.04,110.25c0.11-0.51,0.22-1.02,0.33-1.53
		c-2.52-0.27-5.11-0.96-7.54-0.62c-1.22,0.17-2.16,2.24-3.23,3.45c1.45,0.46,3.01,1.5,4.33,1.25
		C163.05,112.4,165.01,111.15,167.04,110.25z M192.01,131.41c-2.08,1.61-3.78,2.94-6.42,4.98c4.18,1.07,7.25,1.85,10.7,2.74
		c-0.17-1.49-0.1-1.88-0.25-2.1C194.84,135.29,193.59,133.6,192.01,131.41z M149.46,99.26c-3.28-4.12-8.05-4.37-13.31,0
		C141.12,99.26,145.04,99.26,149.46,99.26z M175.28,113.67c-7.44-2-10.07,0.08-8.52,5.07C169.62,117.04,172.45,115.35,175.28,113.67
		z M146.68,102.19c3.39,7.44,7.96,0.74,11.87,3.04c0.06-0.59,0.11-1.18,0.17-1.77C154.71,103.03,150.7,102.61,146.68,102.19z
		 M182.58,115.58c-0.28-0.66-0.55-1.33-0.83-1.99c-2.63,1.24-5.26,2.48-7.89,3.72c0.27,0.61,0.55,1.22,0.82,1.83
		C178.61,121.16,180.31,117.65,182.58,115.58z M115.19,64.8c-0.4,0.45-0.8,0.9-1.21,1.35c2.78,2.84,5.56,5.68,8.34,8.52
		c0.52-0.53,1.03-1.05,1.55-1.58C120.98,70.33,118.09,67.56,115.19,64.8z M187.99,116.39c-0.28-0.37-0.57-0.74-0.85-1.11
		c-2.2,1.7-4.4,3.41-7.26,5.63C186.67,124.2,185.99,118.38,187.99,116.39z"/>
	<path class="st0" d="M419.63,53.59c-14.92,19.15-29.5,37.88-44.77,57.47c21.48,0,42.12,0,63.22,0c0,15.47,0,30.23,0,44.99
		c0.36,0.14,0.72,0.27,1.08,0.41c0.69-1.1,1.47-2.16,2.06-3.32c16.03-30.93,32.17-61.79,47.92-92.86c2.75-5.43,5.78-8.47,12.05-7.25
		c1.42,0.28,2.94,0.04,4.74,0.04c0,42.1,0,83.84,0,125.88c-3.26,0-6.36,0-10.28,0c0-34.65,0-69.29,0-103.94
		c-0.43-0.08-0.85-0.16-1.28-0.24c-3.74,7.16-7.51,14.31-11.22,21.48c-13.88,26.78-27.71,53.59-41.69,80.32
		c-0.64,1.23-2.49,2.37-3.9,2.54c-3.09,0.38-6.26,0.12-9.88,0.12c0-18.71,0-37,0-55.73c-16.71,0-32.93,0-49.97,0
		c14.29,18.36,28.33,36.39,42.46,54.55c-7.68,2.9-12.95,1.52-17.39-4.17c-11.47-14.71-22.95-29.4-35.26-45.17
		c0,17.4,0,33.57,0,50.14c-3.95,0-7.3,0-10.96,0c0-41.82,0-83.43,0-125.4c3.36,0,6.61,0,10.49,0c0,15.72,0,31.6,0,48.85
		c1.98-2.26,3.08-3.39,4.05-4.62c9.76-12.47,20.07-24.56,29.01-37.6C405.29,52.52,411.39,52.32,419.63,53.59z"/>
	<path class="st0" d="M302.5,37.3c3.67,0,6.94,0,10.46,0c0,52.88,0,105.54,0,158.59c-3.32,0-6.7,0-10.46,0
		C302.5,143.25,302.5,90.48,302.5,37.3z"/>
	<path class="st0" d="M124.07,94.68c-1.13-0.83-2.25-1.65-3.38-2.48c-1.87-2.49-3.73-4.99-5.62-7.47c-0.94-1.24-1.93-2.44-2.9-3.66
		c0,0-0.11,0.15-0.11,0.15c4.26-3.31,5.49,1.79,7.21,3.3C122.02,86.93,126.03,89.66,124.07,94.68z"/>
	<path d="M149.46,99.26c-4.42,0-8.33,0-13.31,0"/>
	<path d="M179.88,120.91"/>
	<path d="M187.14,115.28c0.28,0.37,0.57,0.74,0.85,1.11"/>
	<path class="st0" d="M88.13,124.34c-5.95-1.56-11.33-2.62-16.43-4.44c-3.43-1.22-2.67-4.1-0.36-5.83
		c5.17-3.86,10.53-7.48,15.98-10.93c2.78-1.76,5.8-3.51,8.95-4.22c2.16-0.49,5.01,0.35,6.96,1.56c0.79,0.49,0.67,3.91-0.16,5.34
		c-3.07,5.28-6.46,10.4-10.07,15.33C91.89,122.66,89.67,123.37,88.13,124.34z M101.59,101.99c-5.05-2.54-26.51,9.5-29.2,15.77
		c4.29,1.13,8.52,2.53,12.86,3.26c1.83,0.31,4.18-0.38,5.72-1.45c0.57-0.4-0.13-3.37-0.9-4.83c-2.55-4.8-1.71-7.78,3.33-9.86
		C95.93,103.84,98.56,103.05,101.59,101.99z"/>
</g>
</svg>
